# xmcd
#
# Track frame offsets: 
#        150
#        13790
#        23060
#        35335
#        47635
#        57330
#        68823
#        78230
#        90400
#        102120
#        112610
#
# Disc length: 1629 seconds
#
# Revision: 2
# Processed by: cddbd v1.4PL0 Copyright (c) Steve Scherf et al.
# Submitted via: ExactAudioCopy v0.90b2
#
DISCID=76065b0b
DTITLE=Lynn Anderson - The Christmas Album
DYEAR=1900
DGENRE=Country
TTITLE0=Ding-A-Ling The Christmas Bell
TTITLE1=Jingle Bell Rock
TTITLE2=The Spirit Of Christmas
TTITLE3=Rudolph The Red-Nosed Reindeer
TTITLE4=Soon It Will Be Christmas Day
TTITLE5=I Saw Mommy Kissing Santa Clause
TTITLE6=Rockin' Around The Christmas Tree
TTITLE7=Mr. Mistletoe
TTITLE8=A Whistle And A Whisker Away
TTITLE9=Frosty The Snowman
TTITLE10=Don't Wish Me A Merry Christmas
EXTD=
EXTT0=
EXTT1=
EXTT2=
EXTT3=
EXTT4=
EXTT5=
EXTT6=
EXTT7=
EXTT8=
EXTT9=
EXTT10=
PLAYORDER=
